<?xml version="1.0" encoding="UTF-8"?>
<svg id="Capa_2" data-name="Capa 2" xmlns="http://www.w3.org/2000/svg" viewBox="0 0 100.97 175.17">
  <defs>
    <style>
      .cls-1 {
        fill: #fff;
        stroke-width: 3px;
      }

      .cls-1, .cls-2 {
        stroke: #000;
        stroke-miterlimit: 10;
      }

      .cls-3 {
        fill: #48ad34;
      }

      .cls-4 {
        fill: #8cc269;
      }

      .cls-5 {
        fill: #4eae33;
      }

      .cls-2 {
        fill: none;
        stroke-width: 2px;
      }
    </style>
  </defs>
  <g id="Capa_1-2" data-name="Capa 1">
    <path class="cls-1" d="M65.06,46.33s9.4-1.54,3.8-8.94c0,0,.26-.8-10.54-.86l-22.31-.06c-1.71,0-3.41.63-4.57,1.88-1.58,1.7-2.34,4.48,3.15,7.98"/>
    <circle class="cls-5" cx="50.48" cy="29.6" r="7.87"/>
    <circle class="cls-5" cx="39.72" cy="12.8" r="7.33"/>
    <path class="cls-1" d="M35.19,46.33v49.07L1.59,164.91s-.93,6.76,3.2,8.76h90.4s7.47-2.4,2.67-12l-32.8-65.2v-50.13h-29.87Z"/>
    <circle class="cls-5" cx="72.59" cy="4.87" r="4.87"/>
    <line class="cls-2" x1="36.67" y1="56.08" x2="42.61" y2="56.08"/>
    <line class="cls-2" x1="36.67" y1="64.2" x2="42.61" y2="64.2"/>
    <line class="cls-2" x1="36.67" y1="72.33" x2="42.61" y2="72.33"/>
    <line class="cls-2" x1="36.67" y1="80.13" x2="42.61" y2="80.13"/>
    <line class="cls-2" x1="36.67" y1="88.17" x2="42.61" y2="88.17"/>
    <path class="cls-3" d="M21.7,133.87h55.87l14.25,29.38s3,5.24-3.75,5.45H12.71s-6.75-.61-3.19-7.74,12.19-27.09,12.19-27.09Z"/>
    <circle class="cls-4" cx="72.12" cy="155.6" r="5.33"/>
    <circle class="cls-4" cx="61.26" cy="157.53" r="4.87"/>
    <circle class="cls-4" cx="63.12" cy="147.8" r="3"/>
  </g>
</svg>